  <svg
    xmlns="http://www.w3.org/2000/svg"
    class="svg1"
    viewBox="0 0 1230 694"
    fill="none"
  >
    <g opacity="0.6">
      <path
        opacity="0.6"
        d="M1229.44 495.767C1247.28 616.971 812.506 696.042 438.303 640.915C64.1011 585.788 -107.579 370.108 70.9757 255.214C249.53 140.321 1211.61 374.377 1229.44 495.767Z"
        fill="#DDE3E9"
      />
    </g>
    <path
      d="M66.7024 244.263C101.447 302.36 141.766 358.6 166.106 422.265C165.177 414.84 164.062 407.23 162.947 399.806C156.816 360.271 149.198 320.921 141.023 281.571C136.935 261.525 132.662 241.665 128.202 221.804C125.787 211.039 123.372 200.459 120.956 189.694C120.399 187.095 119.841 182.64 119.098 178C142.695 255.214 165.362 332.614 182.085 411.685C184.314 422.079 186.172 432.473 187.659 442.868C188.216 440.455 188.773 438.227 189.331 435.814C196.02 407.601 206.239 379.574 218.13 353.217C223.89 340.596 230.393 328.16 238.196 316.837C243.027 309.599 254.547 301.06 258.82 293.822C234.666 338.183 225.933 393.495 211.998 441.754C208.654 453.448 205.124 465.327 201.779 477.02C222.961 434.515 255.662 399.991 300.997 384.957C246 421.151 213.113 484.816 190.817 549.78C190.817 550.522 190.631 551.265 190.631 552.007C197.134 539.571 205.31 528.435 216.643 520.639C240.612 503.748 266.995 508.76 290.22 523.237C272.012 511.73 239.125 522.124 223.89 534.003C212.927 542.355 203.637 553.678 195.462 564.629C193.604 567.227 190.817 570.383 188.03 573.538C184.128 599.153 177.625 624.396 168.521 649.639C170.007 642.4 168.893 630.892 169.264 625.509C169.264 624.953 169.264 624.396 169.45 623.839C168.149 629.407 166.663 634.79 165.362 640.173C167.964 629.964 169.264 619.199 170.379 608.433C170.751 603.793 170.937 599.153 171.308 594.512C171.308 585.789 170.937 576.879 170.193 567.97C167.964 559.432 165.548 551.265 163.504 544.583C156.258 520.268 145.668 496.881 132.662 475.164C120.77 455.304 106.464 437.299 89.9274 421.151C81.009 412.427 71.719 404.075 62.6148 395.537C59.2703 392.567 53.3247 384.957 48.3081 381.059C85.654 401.662 123.929 423.75 151.242 456.974C148.083 444.724 144.553 432.659 140.837 420.78C122.257 360.827 98.8459 298.648 66.7024 244.263Z"
      fill="#DDE3E9"
    />
    <path
      d="M104.048 573.353C104.048 639.987 109.251 694 180.227 694C251.202 694 256.405 639.987 256.405 573.353"
      fill="#C5CFD6"
    />
    <path
      d="M545.007 281.701L628.674 493.36L684.737 672.299H706.889L621.177 281.701H545.007Z"
      fill="#997659"
    />
    <path
      d="M528.137 281.701C527.285 356.174 514.335 456.209 512.119 460.81C510.756 463.878 463.044 503.244 368.812 578.74L384.148 595.1C495.25 530.341 553.357 493.701 558.469 485.01C566.137 472.058 591.356 352.765 611.464 281.701H528.137Z"
      fill="#B28B67"
    />
    <path
      d="M366.927 573.446C361.807 575.296 358.278 576.923 356.319 578.566C353.97 580.538 350.904 583.778 346.993 588.395C349.293 591.136 369.885 615.679 408.769 662.023C416.677 658.724 419.216 654.591 416.212 650.215C413.229 645.6 410.773 641.877 408.865 638.807L395.44 591.787C395.154 590.915 394.235 590.351 393.364 590.637L386.15 592.909C381.146 590.657 377.734 588.181 375.762 585.831C374.119 583.873 372.712 580.605 371.321 575.766C370.878 573.912 368.911 572.894 367.058 573.336C367.058 573.336 367.058 573.336 366.927 573.446Z"
      fill="#E4E4E4"
    />
    <path
      d="M675.705 664.119C673.831 669.232 672.808 672.981 672.808 675.537C672.808 678.605 673.32 683.035 674.342 689C677.92 689 709.956 689 770.449 689C773.005 680.82 771.471 676.219 766.189 675.708C760.736 675.026 756.305 674.515 752.727 674.003L708.082 653.894C707.23 653.553 706.207 653.894 705.866 654.746L702.969 661.733C698.028 664.119 693.938 665.142 690.871 665.142C688.315 665.142 684.907 664.119 680.306 662.074C678.602 661.222 676.557 662.074 675.705 663.778C675.705 663.949 675.705 663.949 675.705 664.119Z"
      fill="#E4E4E4"
    />
    <path
      d="M601.24 653.894L706.548 642.476L628.504 281.701H534.101L601.24 653.894Z"
      fill="#69A1AC"
    />
    <path
      d="M390.793 552.495L459.806 634.296C532.568 554.881 574.998 502.904 587.096 478.704C599.195 454.505 610.1 388.724 619.643 281.701H513.483C508.2 375.942 504.622 425.193 502.918 429.624C501.043 433.884 463.555 474.955 390.793 552.495Z"
      fill="#89C5CC"
    />
    <path
      d="M556.935 94.4117C547.392 87.0838 539.724 77.1995 538.02 64.5886C532.908 28.46 584.199 25.5628 597.661 41.5821C611.123 57.6014 619.813 103.444 608.056 109.238C603.284 111.624 592.038 110.772 579.939 106.511L596.979 153.036L556.935 161.556V94.4117Z"
      fill="#B28B67"
    />
    <path
      d="M610.1 12.7814C608.567 10.0547 605.84 8.00969 602.773 8.00969C602.092 8.00969 601.24 8.00969 600.558 8.35053C600.217 8.35053 600.217 8.52095 600.047 8.35053C599.876 8.18011 599.876 7.83927 599.706 7.66886C599.536 7.1576 599.195 6.64635 598.854 6.30551C597.832 4.77175 596.468 3.57882 594.935 2.55632C592.038 0.681719 588.459 -0.170371 585.051 0.170465C583.177 0.340883 581.473 1.02255 579.769 2.04506C578.917 2.55632 578.235 3.06757 577.383 3.74924C577.213 3.91966 576.531 4.77175 576.19 4.77175C575.85 4.77175 575.168 4.2605 574.998 4.09008C571.76 2.55632 568.011 2.3859 564.433 3.23799C560.514 4.09008 556.594 5.11259 553.868 8.35053C553.357 9.0322 552.675 9.71387 552.164 10.3955C551.823 10.7364 551.653 11.2476 551.482 11.5885C551.312 11.7589 551.141 12.0997 551.141 12.2701C550.971 12.7814 550.971 12.7814 550.46 12.611C548.585 11.9293 546.711 11.9293 544.837 12.611C543.814 12.9518 542.792 13.6335 541.769 14.1447C541.429 14.3152 540.747 15.1672 540.406 15.1672C540.065 15.1672 539.043 14.8264 538.702 14.8264C536.487 14.4856 534.272 14.8264 532.227 15.6785C530.012 16.5306 528.137 17.8939 526.433 19.4277C525.581 20.2798 525.07 20.9615 524.559 21.984C524.388 22.4952 524.218 22.8361 524.048 23.3473C523.877 23.5177 523.536 23.8586 523.536 24.1994C523.536 24.029 520.81 23.6881 520.639 23.5177C519.276 23.5177 518.083 23.8586 516.891 24.5402C514.675 25.7332 513.142 27.9486 511.949 29.9936C511.267 31.0161 510.756 32.209 510.415 33.402C510.245 33.9132 510.075 34.5949 509.904 35.1062C509.904 35.447 509.904 35.7878 509.734 35.9582C509.563 36.2991 509.393 36.2991 509.052 36.4695C507.348 37.492 505.815 39.0258 504.792 40.9004C503.77 42.775 503.258 44.82 503.429 46.865C503.429 47.0354 503.599 47.5467 503.429 47.5467C503.429 47.7171 502.918 47.7171 502.747 47.7171C502.236 47.8875 501.725 48.0579 501.384 48.2283C500.532 48.5692 499.68 49.0804 498.998 49.7621C496.102 51.9775 494.398 55.5563 494.057 59.1351C493.546 62.8843 494.568 66.9743 496.613 70.0418C496.954 70.5531 497.294 71.0644 497.806 71.4052C498.146 71.746 498.146 71.746 498.146 72.0869C498.146 72.4277 497.976 72.9389 497.806 73.2798C497.465 74.6431 497.465 75.8361 497.465 77.1994C497.465 79.4148 497.806 81.6303 498.658 83.6753C498.998 84.5274 499.51 85.5499 500.191 86.2316C500.532 86.5724 500.873 86.9132 501.384 87.2541C501.554 87.4245 501.895 87.5949 502.066 87.7653C502.236 87.7653 502.406 87.9357 502.406 87.9357C502.747 88.1061 502.747 87.9357 502.747 88.447C502.747 89.1287 502.406 89.8103 502.406 90.3216C502.236 91.0033 502.236 91.6849 502.236 92.1962C502.066 93.7299 501.895 95.0933 502.066 96.4566C502.236 99.0129 502.747 101.569 504.451 103.614C505.133 104.466 505.985 105.148 507.007 105.659C507.519 105.83 508.03 106 508.541 106.17C508.882 106.17 509.052 106.17 509.223 106.511C509.393 106.682 509.393 107.363 509.393 107.534C509.563 110.09 509.904 112.817 511.267 115.032C512.46 117.077 514.335 118.781 516.55 119.633C520.81 121.338 525.922 120.145 529.5 117.248C530.352 116.566 531.204 115.714 531.886 114.691C534.783 117.248 539.213 116.055 542.281 114.521C546.029 112.646 548.585 109.238 549.778 105.148C553.016 107.704 557.957 105.489 559.15 101.91C559.321 101.058 559.491 100.035 559.321 99.1833C559.321 98.6721 559.15 98.1608 559.15 97.6496C559.15 96.9679 559.321 96.2862 559.491 95.775C559.661 94.582 559.661 93.3891 559.491 92.0258C559.321 91.3441 559.15 90.8328 558.98 90.1512C558.809 89.6399 558.809 88.9582 558.809 88.447C557.787 88.7878 556.594 88.7878 555.572 88.7878C554.549 88.6174 553.527 88.1062 552.675 87.5949C550.801 86.2316 549.437 84.357 548.245 82.3119C545.859 77.8811 545.177 72.2573 549.267 68.6785C551.141 66.9743 557.787 65.611 560.514 65.611C563.41 65.611 567.841 71.0644 568.011 71.5756C568.182 71.9164 568.182 72.4277 568.522 72.5981C569.374 72.9389 570.397 71.746 570.738 71.2348C571.419 70.2123 571.93 69.1898 572.271 67.9968C572.953 65.4406 573.464 62.8843 573.634 60.328C573.805 58.283 573.634 56.238 573.975 54.3634C574.316 52.3184 574.998 50.4438 576.531 49.0804C578.065 47.5467 580.11 46.5242 581.984 45.3312C583.859 44.1383 585.563 42.9454 586.926 41.0708C587.267 40.7299 587.437 40.2187 587.607 39.8779C587.778 39.537 587.778 38.8554 588.119 38.6849C588.63 38.3441 589.482 38.8554 589.993 39.0258C592.549 39.8779 594.764 41.582 596.639 43.2862C598.513 45.1608 600.217 46.865 601.751 49.0804C602.773 50.6142 603.796 52.8296 605.329 54.0226C606.011 54.5338 610.441 54.0226 611.634 53.1705C612.827 52.3184 614.19 50.6142 614.36 49.5917C614.701 48.5692 614.531 47.5467 614.19 46.5242C614.02 46.0129 613.508 45.5017 613.338 44.82C613.168 44.3087 612.997 43.9679 612.656 43.4566C611.975 42.775 611.123 42.2637 610.1 42.2637C610.952 41.0708 611.464 39.8779 611.804 38.5145C612.145 37.1512 612.316 35.447 612.145 34.0836C611.975 32.8907 611.634 31.8682 610.782 31.0161C609.93 30.164 608.567 29.6528 607.544 29.3119C608.737 27.7782 609.76 26.074 610.441 24.3698C611.464 20.4502 611.804 16.1898 610.1 12.7814Z"
      fill="#191847"
    />
    <path
      d="M678.943 231.598L746.252 222.396C759.713 214.897 772.153 209.785 783.399 207.228C786.637 207.058 791.579 208.251 784.081 214.556C776.583 220.862 768.915 227.849 770.278 231.087C771.642 234.495 778.628 233.132 779.821 238.415C780.673 241.823 769.256 242.335 745.741 240.119L691.212 261.762L678.943 231.598ZM467.645 247.106L504.963 247.277C464.066 339.302 442.766 387.531 440.892 391.962C436.972 401.675 445.322 416.672 448.9 424.682C437.313 429.965 438.506 410.537 423.851 417.524C410.39 423.83 400.336 435.077 384.829 425.534C382.955 424.341 380.91 419.91 385.852 416.502C398.462 407.981 416.524 392.814 418.91 387.872C422.318 380.884 438.506 334.019 467.645 247.106Z"
      fill="#997659"
    />
    <path
      d="M569.886 128.836L599.024 130.711C606.181 195.81 645.374 236.881 733.131 223.077L744.718 306.923C662.755 317.489 590.845 284.769 576.02 195.81C572.442 172.634 569.375 148.775 569.886 128.836Z"
      fill="#AFB9C5"
    />
    <path
      d="M555.401 120.315L599.706 130.37C599.706 206.547 623.903 255.116 636.342 311.013H516.89C515.186 330.441 514.164 350.209 513.653 370.659H424.021C444.299 262.785 487.07 179.28 552.504 120.145L555.401 120.315Z"
      fill="#C5CFD6"
    />
    <path
      d="M535.635 202.457C532.568 249.833 534.442 286.132 541.088 311.013H516.891C520.128 272.839 526.092 236.54 535.635 202.457Z"
      fill="black"
      fill-opacity="0.1"
    />
  </svg>
