  <svg
    xmlns="http://www.w3.org/2000/svg"
    class="svg2"
    viewBox="-200 500 823 378"
    fill="none"
  >
    <path
      d="M440.727 780.43C442.398 776.005 442.81 768.684 443.02 767.073C444.307 759.32 445.326 751.531 446.578 744.047C449.771 725.89 452.463 707.394 456.497 689.074C460.122 671.794 465.86 655.062 468.142 637.606C469.723 625.521 477.146 595.898 467.731 586.472C451.116 573.646 453.517 611.656 452.942 618.136C451.219 637.578 447.722 655.968 443.349 674.79C439.187 692.001 439.017 710.006 437.539 727.568C436.578 737.003 435.652 746.169 435.228 755.674C435.11 758.663 433.121 771.787 433.55 778.946C429.559 778.15 426.034 777.963 423.887 777.682C409.462 775.249 394.733 773.05 380.308 770.617C324.488 761.132 268.245 754.869 212.763 744.881C160.199 735.549 107.12 728.061 54.0768 720.305C49.4433 720.245 46.6636 724.798 49.1246 728.944C51.5857 733.09 65.1125 734.04 69.3722 734.87C84.2637 737.91 98.9571 740.378 113.954 742.612C145.593 747.023 176.824 752.473 207.984 758.46C263.396 768.985 319.533 776.053 375.354 785.539C388.973 787.866 402.324 790.158 415.979 792.217C423.192 793.434 441.42 800.188 446.033 792.05C448.755 785.851 445.652 782.44 440.727 780.43ZM159.176 522.082C142.3 519.602 125.319 517.928 108.302 516.522C100.716 516.076 93.1648 515.362 85.6137 514.647C81.2837 514.354 71.5626 511.444 67.5236 513.101C51.473 518.923 81.9334 524 85.7266 524.222C101.331 525.99 117.04 526.952 132.411 528.416C189.762 534.55 246.749 545.554 303.643 555.18C330.882 559.835 358.227 563.684 385.665 568.911C400.591 571.682 415.483 574.723 430.409 577.494C437.353 578.675 444.262 580.125 450.973 581.003C455.268 581.565 463.612 584.568 467.849 583.483C471.514 582.597 474.444 581.068 473.092 576.794C471.775 572.251 462.671 572.972 459.217 572.247C446.099 570.259 433.051 567.733 419.735 565.172C389.613 559.594 360.099 553.549 330.105 549.08C273.035 540.797 216.281 530.097 159.176 522.082ZM77.9622 531.402C78.9807 523.613 69.7964 520.773 64.7991 525.583C60.1054 530.159 60.7526 546.086 59.7115 551.96C56.809 572.067 52.3309 591.694 47.8178 611.591C43.3398 631.218 39.667 650.951 35.4574 670.614C33.7264 679.675 21.6671 715.52 31.4334 722.26C43.7084 730.694 45.8233 695.734 46.9346 689.324C50.6776 669.054 54.9574 648.854 59.5057 628.689C67.0468 596.077 73.6422 564.434 77.9622 531.402Z"
      fill="#69A1AC"
    />
    <path
      d="M238.771 648.309C219.944 652.402 201.081 656.764 182.486 661.161C172.6 663.692 162.445 666.188 152.558 668.72C147.48 669.968 127.288 671.97 125.314 676.629C122.825 683.132 145.12 677.58 148.481 676.927C158.263 675.202 168.114 672.939 177.931 670.945C199.852 666.164 221.807 661.114 243.693 656.601C245.678 656.041 247.895 655.784 249.88 655.224C270.825 668.343 291.805 681.194 312.715 694.581C323.788 701.766 334.861 708.95 345.935 716.134C354.231 721.59 368.488 735.746 378.186 736.741C381.944 737.233 384.465 736.743 385.331 732.213C386.605 726.643 377.795 723.033 374.283 720.661C362.509 712.566 350.666 705.008 338.589 697.146C314.937 681.761 290.947 666.878 266.653 652.228C266.384 652.193 266.384 652.193 266.151 651.889C281.01 648.916 295.834 646.211 310.693 643.237C319.097 641.605 378.098 635.117 377.238 627.083C375.946 618.173 322.847 631.716 314.747 633.115C294.88 636.799 274.746 640.448 254.809 644.67C211.846 618.292 168.556 590.232 122.742 568.944C119.895 567.752 117.63 570.46 117.815 573.216C118.164 576.813 128.55 580.902 131.327 582.631C142.435 589.547 153.579 596.194 164.454 602.807C188.445 617.69 212.739 632.339 236.764 646.954C237.733 647.9 238.234 648.238 238.771 648.309Z"
      fill="#89C5CC"
    />
    <path
      d="M388.788 814.338C376.696 814.942 367.203 824.899 367 836.892C366.539 852.947 381.428 862.27 396.472 862.052C413.431 861.811 418.747 848.303 412.45 833.821C410.957 830.622 409.535 826.885 406.524 824.852C404.518 823.497 401.424 824.185 399.954 822.9C393.63 819.068 398.02 814.726 388.788 814.338ZM395.526 804.566C409.507 808.307 433.671 828.129 430.151 844.604C428.832 846.344 426.847 846.904 424.735 846.354C424.815 849.916 424.09 853.372 422.793 857.026C420.854 861.416 417.678 864.825 413.534 867.288C405.21 872.482 394.834 872.491 385.848 870.223C368.646 866.061 356.805 852.221 358.084 834.087C359.329 816.221 377.052 799.692 395.526 804.566Z"
      fill="#89C5CC"
    />
    <path
      d="M323.73 817.029C329.716 821.363 339.249 827.799 341.896 834.701C345.044 841.942 339.766 848.9 331.866 844.589C325.506 841.026 322.534 832.442 315.602 829.077C309.744 825.853 306.884 826.845 300.161 828.151C293.134 829.69 286.948 831.066 279.502 829.546C270.481 827.547 263.13 821.123 254.144 818.855C246.769 816.798 239.94 818.909 232.517 819.304C224.02 819.559 218.805 815.599 210.962 812.934C205.734 811.158 195.742 814.495 191.927 812.357C183.56 807.439 193.587 803.833 198.63 802.854C207.302 801.256 212.086 804.34 219.59 807.507C227.863 811.047 231.599 809.624 240.201 808.564C257.137 806.408 268.384 818.532 284.467 818.723C299.208 818.739 309.483 806.971 323.73 817.029Z"
      fill="#89C5CC"
    />
    <path
      d="M56.0517 774.101C38.2827 786.801 53.2244 810.334 72.2177 800.799C78.9535 797.309 79.7964 790.864 75.7725 784.055C72.2152 777.854 62.8327 774.441 56.0517 774.101ZM63.5377 762.788C77.9149 767.673 90.9952 776.212 90.1247 793.307C89.2893 810.133 71.0913 815.675 57.005 812.74C25.1096 806.111 34.2112 753.217 63.5377 762.788Z"
      fill="#89C5CC"
    />
  </svg>
