  <svg
    xmlns="http://www.w3.org/2000/svg"
    class="svg2"
    viewBox="-200 0 1023 578"
    fill="none"
  >
    <path
      d="M616.257 46.4684C615.582 45.6521 613.509 45.0476 612.57 44.6817C608.848 43.0565 604.701 41.8475 600.648 40.9956C588.164 38.3716 575.246 37.0053 562.483 36.5145C554.43 36.1706 544.076 38.7153 536.803 34.6575C524.228 27.6308 510.576 24.9297 496.478 28.3735C483.65 31.4099 472.493 40.1928 464.896 50.5668C463.712 52.1726 459.307 57.8225 457.418 61.9778C456.924 62.717 456.234 63.5836 455.74 64.3228C454.225 66.7019 452.871 69.115 451.517 71.5282C450.955 72.5903 449.636 74.842 450.507 75.5309C448.274 78.0966 446.17 80.8579 444.357 83.8488C439.017 92.337 433.184 101.564 429.885 110.819C428.652 114.269 427.905 117.821 427.611 121.637C427.4 123.448 426.653 127 427.516 128.53C429.499 131.982 431.645 128.218 431.728 126.212C432.513 111.202 439.775 98.3975 447.652 85.8903C452.761 77.6909 459.809 70.7418 467.335 64.7365C473.454 59.7844 479.627 56.1922 487.088 53.714C496.213 50.5738 505.783 48.5386 515.19 46.4694C521.407 45.0786 527.591 43.8493 533.903 42.8155C535.302 42.6037 537.681 41.7549 538.978 42.0275C542.058 42.675 545.799 45.8216 548.709 47.2765C557.86 52.0661 566.841 57.6632 576.622 61.0678C582.903 63.3997 589.14 63.5303 595.58 62.692C596.262 62.6669 597.371 62.2254 598.837 61.6907C603.588 60.8346 608.245 59.6215 612.618 57.3373C615.099 56.0041 617.52 54.1525 619.745 52.4282C620.367 51.8845 620.827 51.3068 620.997 50.4994C621.355 50.4061 621.747 50.1513 621.815 49.8284C622.742 47.8315 618.851 47.0136 616.257 46.4684Z"
      fill="#FF9B21"
    />
    <path
      d="M588.987 102.109C583.712 99.8198 577.551 98.5248 571.843 97.4936C541.585 91.6395 508.929 99.6128 484.85 118.325C464.402 134.26 454.806 157.365 446.438 181.066C445.605 183.42 444.934 185.808 444.262 188.196C444.161 188.68 443.897 189.13 443.795 189.615C442.26 190.472 441.34 191.628 441.845 193.251C437.799 198.808 434.044 204.594 430.579 210.61C420.575 228.403 410.307 246.646 409.828 267.452C412.946 256.643 417.268 245.749 421.683 235.211C421.981 234.6 422.279 233.988 422.577 233.376L422.611 233.215C424.134 229.994 425.786 226.969 427.728 224.174C427.728 224.174 427.728 224.174 427.762 224.012C428.026 223.562 428.256 223.273 428.52 222.823C429.014 222.084 429.541 221.183 430.198 220.478C430.428 220.189 430.658 219.9 430.691 219.739C433.391 215.754 435.254 210.918 437.826 206.738C438.354 205.837 439.077 204.809 439.605 203.909L439.639 203.747C441.351 201.241 443.225 198.768 445.099 196.296C445.85 195.948 446.641 194.597 447.527 193.603C447.724 193.475 449.036 192.065 449.564 191.164C450.68 189.882 451.83 188.437 452.946 187.154C454.062 185.872 455.178 184.589 456.294 183.306C456.524 183.017 456.754 182.728 456.984 182.439C457.41 182.023 457.674 181.573 458.1 181.156C461.679 177.019 465.581 172.95 469.45 169.042C470.762 167.632 473.865 165.755 474.725 164.081L474.759 163.919C482.982 156.206 492.009 149.504 502.122 144.886C500.749 145.777 497.827 149.21 497.009 149.881C494.75 151.767 492.329 153.618 489.747 155.436C485.365 158.561 481.078 162.044 477.115 165.595C469.778 172.314 463.183 179.527 456.878 186.969L456.682 187.097C453.802 189.526 451.46 193.418 449.16 196.306C456.29 194.602 463.993 194.197 471.379 192.884C478.604 191.536 485.862 190.026 492.932 187.803C502.347 184.892 512.025 181.531 521.226 177.227C531.493 173.484 540.742 167.335 549.248 160.692C559.195 152.835 568.527 144.681 575.51 134.009C578.968 128.834 581.845 123.201 584.27 117.303C584.338 116.98 584.534 116.853 584.602 116.53C586.178 114.669 587.43 112.741 588.715 110.65C590.529 107.66 594.262 104.398 588.987 102.109Z"
      fill="#E87613"
    />
    <path
      d="M578.038 210.581C572.632 204.893 564.276 201.956 556.656 200.354C526.825 194.084 496.306 199.135 468.687 210.527C453.492 216.775 439.247 225.752 426.197 235.486C418.739 241.168 411.665 247.437 406.205 254.889C402.423 259.995 399.418 265.433 397.028 271.169C394.041 278.129 391.311 285.479 389.263 292.805C388.49 295.677 383.415 310.965 388.245 312.149C388.177 312.472 388.075 312.956 388.007 313.279C373.811 327.661 363.253 345.675 353.223 362.788C344.513 377.649 336.383 392.969 329.841 408.792C321.206 429.739 313.928 451.477 307.981 473.326C306.673 477.94 305.492 482.75 304.312 487.56C303.302 491.563 302.291 495.566 301.246 499.73C300.134 504.217 298.203 509.375 298.064 514.067C297.898 518.078 301.404 518.31 302.415 514.307C303.561 509.658 304.579 504.814 305.726 500.166C307.374 493.936 308.859 487.673 310.507 481.444C321.813 438.128 338.981 396.719 362.585 358.517C372.114 342.985 382.411 328.626 394.553 315.161C405.186 303.233 417.372 291.969 429.517 281.707C441.432 271.735 453.604 262.154 467.057 254.528C478.029 248.235 489.737 243.277 501.667 238.872C516.726 233.27 531.752 227.829 547.701 224.437C555.871 222.614 564.298 221.182 572.435 219.52C573.868 219.147 575.429 218.969 576.862 218.596C581.714 217.255 580.968 213.558 578.038 210.581Z"
      fill="#FF9B21"
    />
    <path
      d="M425.631 338.048C437.791 340.603 448.152 344.467 458.355 351.501C467.038 357.71 474.801 365.074 481.976 372.821C492.209 383.739 499.576 395.404 503.474 409.88C505.736 418.449 506.346 430.042 501.988 437.894C496.803 447.257 486.479 453.686 475.503 449.525C468.769 446.929 463.235 441.045 458.963 435.595C453.726 429.098 449.861 421.711 447.105 413.881C442.672 401.147 441.3 387.539 437.941 374.525C436.372 368.294 434.804 362.063 432.681 356.053C431.603 353.128 430.397 350.009 428.372 347.56C427.279 346.318 422.011 343.188 424.594 341.37C393.039 335.244 360.13 353.28 347.853 381.892C346.789 384.534 345.692 387.339 344.629 389.981C343.931 391.689 342.736 398.182 340.877 398.972C336.801 400.644 339.983 393.557 340.221 392.427C341.122 389.75 342.219 386.946 343.283 384.303C348.905 369.636 358.701 356.858 372.324 348.425C388.104 338.59 407.311 334.197 425.631 338.048Z"
      fill="#E87613"
    />
    <path
      d="M28.8437 107.593L396.601 67.2298C412.465 65.4886 426.866 77.0085 428.602 92.8295L454.255 326.549C455.991 342.371 444.432 356.74 428.568 358.481L60.8104 398.844C44.9463 400.586 30.5459 389.066 28.8094 373.245L3.1572 139.525C1.42074 123.704 12.9797 109.335 28.8437 107.593Z"
      fill="#BDDBDF"
    />
    <path
      d="M150.302 147.028L308.943 129.617C315.072 128.944 320.272 133.104 320.943 139.217C321.614 145.329 317.44 150.518 311.31 151.191L152.67 168.603C146.541 169.275 141.34 165.115 140.67 159.003C139.999 152.89 144.533 147.662 150.302 147.028Z"
      fill="#DDE3E9"
    />
    <path
      d="M105.885 121.336L346.73 94.9015C352.859 94.2288 358.059 98.3887 358.73 104.501C359.401 110.614 355.227 115.803 349.098 116.476L108.253 142.91C102.123 143.583 96.9232 139.423 96.2523 133.31C95.6209 127.557 100.116 121.969 105.885 121.336Z"
      fill="#191847"
    />
    <path
      d="M183.092 179.819L284.045 168.739C290.174 168.066 295.375 172.226 296.045 178.339C296.716 184.452 292.542 189.641 286.413 190.313L185.46 201.394C179.331 202.066 174.13 197.906 173.46 191.794C172.789 185.681 177.323 180.453 183.092 179.819Z"
      fill="#DDE3E9"
    />
    <path
      d="M157.603 213.549L316.244 196.137C322.373 195.464 327.573 199.624 328.244 205.737C328.915 211.849 324.741 217.038 318.611 217.711L159.971 235.123C153.842 235.796 148.641 231.636 147.971 225.523C147.3 219.41 151.834 214.182 157.603 213.549Z"
      fill="#DDE3E9"
    />
    <path
      d="M190.393 246.34L291.346 235.259C297.475 234.587 302.676 238.747 303.347 244.859C304.017 250.972 299.843 256.161 293.714 256.834L192.761 267.914C186.632 268.587 181.432 264.427 180.761 258.314C180.09 252.201 184.624 246.973 190.393 246.34Z"
      fill="#DDE3E9"
    />
    <path
      d="M89.4619 317.461C80.9038 309.303 74.6722 299.07 74.0515 286.766C72.7078 251.251 122.61 253.779 134.279 270.33C145.947 286.88 149.478 332.344 137.574 336.926C132.685 338.918 121.874 336.83 110.707 331.505L122.767 378.216L83.107 382.569L89.4619 317.461Z"
      fill="#D9E8EA"
    />
    <path
      d="M148.901 243.98C147.864 241.182 145.425 238.903 142.101 238.54C141.38 238.619 140.619 238.338 139.898 238.418C139.538 238.457 139.538 238.457 139.538 238.457C139.538 238.457 139.498 238.098 139.459 237.738C139.419 237.378 138.98 236.699 138.94 236.339C138.022 234.621 136.782 233.301 135.582 232.341C132.822 230.461 129.74 228.979 126.095 229.016C124.292 229.213 122.49 229.411 120.766 230.328C120.084 230.767 119.042 231.245 118.36 231.684C118 231.724 117.358 232.522 116.997 232.561C116.636 232.601 116.197 231.921 115.797 231.601C112.676 229.761 109.352 229.398 105.747 229.793C101.781 230.229 98.2145 230.984 94.8458 233.537C94.1642 233.976 93.522 234.774 92.8799 235.572C92.5588 235.971 92.2377 236.371 91.9166 236.77C91.5955 237.169 91.5955 237.169 91.635 237.528C91.3139 237.928 91.3139 237.928 90.9534 237.967C89.3928 237.047 87.5506 236.885 85.4268 237.482C84.3452 237.601 83.303 238.079 82.2608 238.557C81.9003 238.597 81.2581 239.395 80.8975 239.435C80.537 239.474 79.7764 239.194 79.3764 238.874C77.1342 238.392 74.9315 238.27 72.8077 238.867C70.6838 239.464 68.5995 240.421 66.9546 242.057C66.3124 242.855 65.2703 243.333 65.0281 244.452C64.707 244.851 64.7465 245.21 64.4254 245.61C64.4649 245.969 64.1043 246.009 63.7833 246.408L61.141 245.606C60.0199 245.365 58.5777 245.524 57.5356 246.002C55.4512 246.958 53.4853 248.994 52.2404 250.95C51.5982 251.748 50.9955 252.906 50.3928 254.064C50.0718 254.463 49.7901 255.222 49.8296 255.581C49.8691 255.941 49.548 256.34 49.548 256.34C49.2269 256.739 49.2269 256.739 48.8664 256.779C47.1426 257.696 45.4582 258.972 44.5344 260.529C43.2896 262.485 42.7658 264.362 42.6421 266.559L42.721 267.278C42.721 267.278 42.3604 267.318 41.9999 267.358C41.6393 267.397 40.9183 267.476 40.5972 267.875C39.9155 268.314 38.8339 268.433 38.1917 269.231C35.1047 271.026 33.2966 274.499 32.5701 277.854C31.8831 281.568 32.3173 285.524 34.1146 288.601C34.1146 288.601 34.1936 289.321 34.5936 289.641C34.9936 289.961 34.9936 289.961 34.6725 290.36C34.712 290.719 34.3909 291.118 34.0698 291.518C33.4671 292.675 33.2644 294.153 33.3828 295.232C33.259 297.429 33.1353 299.626 33.7326 301.744C34.2116 302.783 34.2905 303.502 35.13 304.502C35.8905 304.782 35.93 305.142 36.33 305.462C36.3695 305.821 36.73 305.782 36.7695 306.141L37.1695 306.461C37.5695 306.781 37.5301 306.422 37.209 306.821C37.2879 307.54 36.9668 307.939 36.6852 308.698C36.4036 309.456 36.4431 309.816 36.1614 310.575C35.9193 311.693 35.7166 313.171 35.4744 314.289C35.3902 316.846 35.6664 319.363 36.9848 321.401C37.4638 322.441 38.2638 323.081 39.4244 323.681C39.8244 324.001 40.2244 324.321 40.9455 324.242C41.306 324.202 41.6666 324.163 41.7061 324.522C41.7455 324.882 41.785 325.241 41.8244 325.601C42.0612 327.758 42.377 330.635 43.3348 332.713C44.2927 334.791 45.9717 336.791 47.8928 337.671C51.7745 339.793 56.8222 339.239 60.5514 336.646C61.5936 336.168 62.2358 335.369 63.2385 334.532C65.7175 337.171 70.044 336.696 73.21 335.621C77.0576 334.107 80.0263 331.233 81.4344 327.44C84.2739 330.039 89.2427 328.766 90.6902 325.332C90.9718 324.574 91.214 323.455 91.1351 322.736C91.0956 322.377 91.0167 321.657 90.9772 321.298C90.8983 320.579 91.2193 320.18 91.501 319.421C91.7431 318.303 91.9853 317.184 91.8274 315.746C91.7485 315.027 91.709 314.667 91.6301 313.948C91.5511 313.229 91.5117 312.869 91.7933 312.111C90.7117 312.229 89.63 312.348 88.5089 312.107C87.3878 311.866 86.5878 311.226 85.7878 310.586C84.1877 309.307 82.8693 307.268 81.9114 305.19C79.9562 300.673 80.0853 295.201 84.4961 292.169C86.541 290.853 93.0309 290.141 95.5942 290.223C98.5575 290.626 102.073 296.063 102.152 296.782C102.192 297.141 102.231 297.501 102.631 297.821C103.392 298.101 104.394 297.263 105.076 296.825C105.718 296.026 106.321 294.869 106.924 293.711C107.768 291.435 108.574 288.799 109.058 286.562C109.221 284.725 109.345 282.528 109.869 280.651C110.393 278.774 111.316 277.217 113.001 275.94C114.685 274.664 116.769 273.707 118.493 272.79C120.578 271.834 122.301 270.917 123.586 269.32C123.907 268.921 124.228 268.522 124.549 268.123C124.87 267.723 124.831 267.364 125.152 266.965C125.473 266.566 126.273 267.206 127.033 267.486C129.355 268.687 131.355 270.287 133.034 272.286C134.713 274.285 135.991 275.964 137.349 278.363C138.268 280.081 138.865 282.199 140.465 283.479C141.265 284.119 145.271 284.043 146.634 283.166C147.997 282.288 149.282 280.692 149.563 279.933C149.805 278.815 150.087 278.056 149.608 277.017C149.529 276.298 149.129 275.978 149.05 275.259C149.011 274.899 148.571 274.22 148.532 273.86C148.092 273.181 147.292 272.541 146.171 272.3C147.174 271.462 147.776 270.304 147.979 268.826C148.582 267.668 148.745 265.831 148.627 264.752C148.508 263.673 148.39 262.595 147.55 261.595C146.711 260.596 145.55 259.995 144.429 259.754C145.753 258.517 147.037 256.921 147.922 255.004C149.73 251.531 150.377 247.457 148.901 243.98Z"
      fill="#191847"
    />
    <path
      d="M421.576 151.825L438.941 310.035C439.612 316.148 435.437 321.337 429.308 322.01C423.179 322.682 417.979 318.522 417.308 312.41L399.943 154.199C399.272 148.087 403.446 142.898 409.576 142.225C415.344 141.592 420.905 145.712 421.576 151.825Z"
      fill="#DDE3E9"
    />
    <path
      d="M440.314 472.533C408.743 473.867 412.26 522.129 442.923 515.213C453.615 512.787 470.087 503.742 466.136 490.114C463.106 479.884 450.083 472.991 440.314 472.533ZM455.096 459.716C474.806 465.571 485.651 489.115 476.179 507.27C467.08 524.654 440.091 534.783 422.412 525.915C405.504 517.421 399.737 492.629 407.925 475.945C416.755 458.526 438.034 454.48 455.096 459.716Z"
      fill="#89C5CC"
    />
    <path
      d="M264.561 455.284C272.275 456.839 278.015 463.053 285.659 465.145C292.801 466.899 299.023 465.254 306.248 464.287C314.885 462.958 322.273 462.832 330.582 466.104C336.814 468.558 342.426 473.662 349.066 475.077C362.079 477.871 379.077 464.798 387.065 483.051C390.843 491.739 383.162 496.198 376.172 491.187C369.183 486.175 373.117 485.324 363.137 486.477C355.107 487.339 348.524 487.571 340.823 483.832C333.891 480.467 328.314 475.094 320.6 473.539C313.154 472.019 305.987 474.633 298.529 475.296C289.425 476.018 281.547 473.622 273.344 469.544C265.642 465.806 262.597 464.041 254.263 465.137C248.952 466.081 237.081 469.172 232.473 464.745C224.761 456.908 236.444 457.343 241.112 457.134C248.804 456.775 257.15 453.496 264.561 455.284Z"
      fill="#89C5CC"
    />
    <path
      d="M96.7954 427.062C85.416 426.393 70.6674 445.224 85.3256 447.96C95.9926 449.902 110.157 433.453 96.7954 427.062ZM100.584 410.622C134.717 425.192 112.078 473.038 78.4569 462.905C63.2392 458.183 60.2238 439.488 67.3484 426.762C70.2334 421.403 75.1605 417.13 80.7172 414.306C85.0598 412.416 96.4643 408.717 100.584 410.622Z"
      fill="#89C5CC"
    />
  </svg>
