<?xml version="1.0" encoding="UTF-8" standalone="no"?>
<!DOCTYPE svg PUBLIC "-//W3C//DTD SVG 1.1//EN"
 "http://www.w3.org/Graphics/SVG/1.1/DTD/svg11.dtd">
<!-- Generated by graphviz version 2.38.0 (20140413.2041)
 -->
<!-- Title: G Pages: 1 -->
<svg width="844pt" height="908pt"
 viewBox="0.00 0.00 844.00 908.00" xmlns="http://www.w3.org/2000/svg" xmlns:xlink="http://www.w3.org/1999/xlink">
<g id="graph0" class="graph" transform="scale(1 1) rotate(0) translate(4 904)">
<title>G</title>
<polygon fill="white" stroke="none" points="-4,4 -4,-904 840,-904 840,4 -4,4"/>
<!-- MIL&#45;0 -->
<g id="node1" class="node"><title>MIL&#45;0</title>
<ellipse fill="none" stroke="black" cx="767" cy="-882" rx="34.394" ry="18"/>
<a xlink:show="new" xlink:href="http://asso-ide.fr/lodetis-demo.php?id=MIL-0"><text text-anchor="middle" x="767" y="-878.3" font-family="Times New Roman,serif" font-size="14.00">MIL&#45;0</text></a>
</g>
<!-- MIL&#45;1 -->
<g id="node2" class="node"><title>MIL&#45;1</title>
<ellipse fill="none" stroke="black" cx="698" cy="-810" rx="34.394" ry="18"/>
<a xlink:show="new" xlink:href="http://asso-ide.fr/lodetis-demo.php?id=MIL-1"><text text-anchor="middle" x="698" y="-806.3" font-family="Times New Roman,serif" font-size="14.00">MIL&#45;1</text></a>
</g>
<!-- MIL&#45;0&#45;&gt;MIL&#45;1 -->
<g id="edge1" class="edge"><title>MIL&#45;0&#45;&gt;MIL&#45;1</title>
<path fill="none" stroke="black" d="M751.687,-865.465C742.485,-856.13 730.615,-844.087 720.376,-833.7"/>
<polygon fill="black" stroke="black" points="722.783,-831.157 713.271,-826.492 717.798,-836.071 722.783,-831.157"/>
</g>
<!-- REP&#45;NON -->
<g id="node3" class="node"><title>REP&#45;NON</title>
<ellipse fill="none" stroke="black" cx="510" cy="-90" rx="50.0912" ry="18"/>
<a xlink:show="new" xlink:href="http://asso-ide.fr/lodetis-demo.php?id=REP-NON"><text text-anchor="middle" x="510" y="-86.3" font-family="Times New Roman,serif" font-size="14.00">REP&#45;NON</text></a>
</g>
<!-- MIL&#45;0&#45;&gt;REP&#45;NON -->
<g id="edge2" class="edge"><title>MIL&#45;0&#45;&gt;REP&#45;NON</title>
<path fill="none" stroke="black" d="M780.632,-865.181C800.741,-840.168 836,-789.159 836,-739 836,-739 836,-739 836,-233 836,-118.457 664.749,-95.3577 570.486,-91.3189"/>
<polygon fill="black" stroke="black" points="570.345,-87.8114 560.223,-90.9412 570.088,-94.8067 570.345,-87.8114"/>
</g>
<!-- REP&#45;CR&#45;PD&#45;314&#45;11&#45;4 -->
<g id="node4" class="node"><title>REP&#45;CR&#45;PD&#45;314&#45;11&#45;4</title>
<ellipse fill="none" stroke="black" cx="698" cy="-738" rx="92.8835" ry="18"/>
<a xlink:show="new" xlink:href="http://asso-ide.fr/lodetis-demo.php?id=REP-CR&#45;PD&#45;314&#45;11&#45;4"><text text-anchor="middle" x="698" y="-734.3" font-family="Times New Roman,serif" font-size="14.00">REP&#45;CR&#45;PD&#45;314&#45;11&#45;4</text></a>
</g>
<!-- MIL&#45;1&#45;&gt;REP&#45;CR&#45;PD&#45;314&#45;11&#45;4 -->
<g id="edge3" class="edge"><title>MIL&#45;1&#45;&gt;REP&#45;CR&#45;PD&#45;314&#45;11&#45;4</title>
<path fill="none" stroke="black" d="M698,-791.697C698,-783.983 698,-774.712 698,-766.112"/>
<polygon fill="black" stroke="black" points="701.5,-766.104 698,-756.104 694.5,-766.104 701.5,-766.104"/>
</g>
<!-- MIL&#45;2 -->
<g id="node5" class="node"><title>MIL&#45;2</title>
<ellipse fill="none" stroke="black" cx="539" cy="-738" rx="34.394" ry="18"/>
<a xlink:show="new" xlink:href="http://asso-ide.fr/lodetis-demo.php?id=MIL-2"><text text-anchor="middle" x="539" y="-734.3" font-family="Times New Roman,serif" font-size="14.00">MIL&#45;2</text></a>
</g>
<!-- MIL&#45;1&#45;&gt;MIL&#45;2 -->
<g id="edge4" class="edge"><title>MIL&#45;1&#45;&gt;MIL&#45;2</title>
<path fill="none" stroke="black" d="M672.454,-797.753C645.68,-785.966 603.449,-767.374 573.676,-754.266"/>
<polygon fill="black" stroke="black" points="575.045,-751.045 564.483,-750.219 572.225,-757.451 575.045,-751.045"/>
</g>
<!-- DOC&#45;CR&#45;PD&#45;314&#45;11&#45;4 -->
<g id="node17" class="node"><title>DOC&#45;CR&#45;PD&#45;314&#45;11&#45;4</title>
<ellipse fill="none" stroke="black" cx="712" cy="-666" rx="95.5831" ry="18"/>
<a xlink:show="new" xlink:href="http://asso-ide.fr/lodetis-demo.php?id=DOC-CR&#45;PD&#45;314&#45;11&#45;4"><text text-anchor="middle" x="712" y="-662.3" font-family="Times New Roman,serif" font-size="14.00">DOC&#45;CR&#45;PD&#45;314&#45;11&#45;4</text></a>
</g>
<!-- REP&#45;CR&#45;PD&#45;314&#45;11&#45;4&#45;&gt;DOC&#45;CR&#45;PD&#45;314&#45;11&#45;4 -->
<g id="edge23" class="edge"><title>REP&#45;CR&#45;PD&#45;314&#45;11&#45;4&#45;&gt;DOC&#45;CR&#45;PD&#45;314&#45;11&#45;4</title>
<path fill="none" stroke="black" d="M701.461,-719.697C703.003,-711.983 704.858,-702.712 706.578,-694.112"/>
<polygon fill="black" stroke="black" points="710.05,-694.597 708.579,-684.104 703.186,-693.224 710.05,-694.597"/>
</g>
<!-- DOC&#45;NON -->
<g id="node21" class="node"><title>DOC&#45;NON</title>
<ellipse fill="none" stroke="black" cx="228" cy="-18" rx="52.7911" ry="18"/>
<a xlink:show="new" xlink:href="http://asso-ide.fr/lodetis-demo.php?id=DOC-NON"><text text-anchor="middle" x="228" y="-14.3" font-family="Times New Roman,serif" font-size="14.00">DOC&#45;NON</text></a>
</g>
<!-- REP&#45;CR&#45;PD&#45;314&#45;11&#45;4&#45;&gt;DOC&#45;NON -->
<g id="edge27" class="edge"><title>REP&#45;CR&#45;PD&#45;314&#45;11&#45;4&#45;&gt;DOC&#45;NON</title>
<path fill="none" stroke="black" d="M656.35,-721.75C638.609,-713.236 619.226,-700.88 607,-684 583.273,-651.243 588,-635.447 588,-595 588,-595 588,-595 588,-161 588,-120.553 598.755,-99.3972 569,-72 522.849,-29.5061 350.486,-48.453 289,-36 284.818,-35.153 280.502,-34.172 276.188,-33.1173"/>
<polygon fill="black" stroke="black" points="276.749,-29.6478 266.193,-30.5503 275.008,-36.4278 276.749,-29.6478"/>
</g>
<!-- MIL&#45;2&#45;&gt;REP&#45;NON -->
<g id="edge21" class="edge"><title>MIL&#45;2&#45;&gt;REP&#45;NON</title>
<path fill="none" stroke="black" d="M539,-719.951C539,-693.292 539,-640.115 539,-595 539,-595 539,-595 539,-233 539,-192.215 527.373,-146.148 518.844,-117.84"/>
<polygon fill="black" stroke="black" points="522.176,-116.769 515.869,-108.257 515.491,-118.845 522.176,-116.769"/>
</g>
<!-- MIL&#45;3 -->
<g id="node6" class="node"><title>MIL&#45;3</title>
<ellipse fill="none" stroke="black" cx="241" cy="-666" rx="34.394" ry="18"/>
<a xlink:show="new" xlink:href="http://asso-ide.fr/lodetis-demo.php?id=MIL-3"><text text-anchor="middle" x="241" y="-662.3" font-family="Times New Roman,serif" font-size="14.00">MIL&#45;3</text></a>
</g>
<!-- MIL&#45;2&#45;&gt;MIL&#45;3 -->
<g id="edge5" class="edge"><title>MIL&#45;2&#45;&gt;MIL&#45;3</title>
<path fill="none" stroke="black" d="M508.231,-729.772C454.25,-717.092 342.486,-690.839 282.008,-676.633"/>
<polygon fill="black" stroke="black" points="282.583,-673.173 272.048,-674.293 280.983,-679.987 282.583,-673.173"/>
</g>
<!-- REP&#45;CR&#45;PD&#45;314&#45;11&#45;5 -->
<g id="node7" class="node"><title>REP&#45;CR&#45;PD&#45;314&#45;11&#45;5</title>
<ellipse fill="none" stroke="black" cx="137" cy="-522" rx="92.8835" ry="18"/>
<a xlink:show="new" xlink:href="http://asso-ide.fr/lodetis-demo.php?id=REP-CR&#45;PD&#45;314&#45;11&#45;5"><text text-anchor="middle" x="137" y="-518.3" font-family="Times New Roman,serif" font-size="14.00">REP&#45;CR&#45;PD&#45;314&#45;11&#45;5</text></a>
</g>
<!-- MIL&#45;3&#45;&gt;REP&#45;CR&#45;PD&#45;314&#45;11&#45;5 -->
<g id="edge6" class="edge"><title>MIL&#45;3&#45;&gt;REP&#45;CR&#45;PD&#45;314&#45;11&#45;5</title>
<path fill="none" stroke="black" d="M227.482,-649.031C218.834,-638.648 207.498,-624.724 198,-612 182.446,-591.164 165.826,-566.758 153.868,-548.778"/>
<polygon fill="black" stroke="black" points="156.507,-546.424 148.071,-540.015 150.67,-550.287 156.507,-546.424"/>
</g>
<!-- MIL&#45;4 -->
<g id="node8" class="node"><title>MIL&#45;4</title>
<ellipse fill="none" stroke="black" cx="241" cy="-594" rx="34.394" ry="18"/>
<a xlink:show="new" xlink:href="http://asso-ide.fr/lodetis-demo.php?id=MIL-4"><text text-anchor="middle" x="241" y="-590.3" font-family="Times New Roman,serif" font-size="14.00">MIL&#45;4</text></a>
</g>
<!-- MIL&#45;3&#45;&gt;MIL&#45;4 -->
<g id="edge7" class="edge"><title>MIL&#45;3&#45;&gt;MIL&#45;4</title>
<path fill="none" stroke="black" d="M241,-647.697C241,-639.983 241,-630.712 241,-622.112"/>
<polygon fill="black" stroke="black" points="244.5,-622.104 241,-612.104 237.5,-622.104 244.5,-622.104"/>
</g>
<!-- DOC&#45;CR&#45;PD&#45;314&#45;11&#45;5 -->
<g id="node18" class="node"><title>DOC&#45;CR&#45;PD&#45;314&#45;11&#45;5</title>
<ellipse fill="none" stroke="black" cx="137" cy="-450" rx="95.5831" ry="18"/>
<a xlink:show="new" xlink:href="http://asso-ide.fr/lodetis-demo.php?id=DOC-CR&#45;PD&#45;314&#45;11&#45;5"><text text-anchor="middle" x="137" y="-446.3" font-family="Times New Roman,serif" font-size="14.00">DOC&#45;CR&#45;PD&#45;314&#45;11&#45;5</text></a>
</g>
<!-- REP&#45;CR&#45;PD&#45;314&#45;11&#45;5&#45;&gt;DOC&#45;CR&#45;PD&#45;314&#45;11&#45;5 -->
<g id="edge24" class="edge"><title>REP&#45;CR&#45;PD&#45;314&#45;11&#45;5&#45;&gt;DOC&#45;CR&#45;PD&#45;314&#45;11&#45;5</title>
<path fill="none" stroke="black" d="M137,-503.697C137,-495.983 137,-486.712 137,-478.112"/>
<polygon fill="black" stroke="black" points="140.5,-478.104 137,-468.104 133.5,-478.104 140.5,-478.104"/>
</g>
<!-- REP&#45;CR&#45;PD&#45;314&#45;11&#45;5&#45;&gt;DOC&#45;NON -->
<g id="edge28" class="edge"><title>REP&#45;CR&#45;PD&#45;314&#45;11&#45;5&#45;&gt;DOC&#45;NON</title>
<path fill="none" stroke="black" d="M90.4238,-506.374C70.1302,-497.961 47.4915,-485.512 32,-468 4.14886,-436.516 0,-421.035 0,-379 0,-379 0,-379 0,-161 0,-80.3837 103.973,-43.8916 171.495,-28.693"/>
<polygon fill="black" stroke="black" points="172.548,-32.0464 181.586,-26.5176 171.073,-25.2036 172.548,-32.0464"/>
</g>
<!-- MIL&#45;4&#45;&gt;REP&#45;CR&#45;PD&#45;314&#45;11&#45;5 -->
<g id="edge8" class="edge"><title>MIL&#45;4&#45;&gt;REP&#45;CR&#45;PD&#45;314&#45;11&#45;5</title>
<path fill="none" stroke="black" d="M220.453,-579.17C206.036,-569.466 186.452,-556.285 169.878,-545.13"/>
<polygon fill="black" stroke="black" points="171.779,-542.19 161.529,-539.51 167.871,-547.997 171.779,-542.19"/>
</g>
<!-- MIL&#45;5 -->
<g id="node9" class="node"><title>MIL&#45;5</title>
<ellipse fill="none" stroke="black" cx="282" cy="-522" rx="34.394" ry="18"/>
<a xlink:show="new" xlink:href="http://asso-ide.fr/lodetis-demo.php?id=MIL-5"><text text-anchor="middle" x="282" y="-518.3" font-family="Times New Roman,serif" font-size="14.00">MIL&#45;5</text></a>
</g>
<!-- MIL&#45;4&#45;&gt;MIL&#45;5 -->
<g id="edge9" class="edge"><title>MIL&#45;4&#45;&gt;MIL&#45;5</title>
<path fill="none" stroke="black" d="M250.716,-576.411C255.618,-568.042 261.67,-557.71 267.141,-548.37"/>
<polygon fill="black" stroke="black" points="270.319,-549.868 272.353,-539.47 264.279,-546.33 270.319,-549.868"/>
</g>
<!-- REP&#45;CR&#45;PD&#45;314&#45;11&#45;6 -->
<g id="node10" class="node"><title>REP&#45;CR&#45;PD&#45;314&#45;11&#45;6</title>
<ellipse fill="none" stroke="black" cx="249" cy="-306" rx="92.8835" ry="18"/>
<a xlink:show="new" xlink:href="http://asso-ide.fr/lodetis-demo.php?id=REP-CR&#45;PD&#45;314&#45;11&#45;6"><text text-anchor="middle" x="249" y="-302.3" font-family="Times New Roman,serif" font-size="14.00">REP&#45;CR&#45;PD&#45;314&#45;11&#45;6</text></a>
</g>
<!-- MIL&#45;5&#45;&gt;REP&#45;CR&#45;PD&#45;314&#45;11&#45;6 -->
<g id="edge10" class="edge"><title>MIL&#45;5&#45;&gt;REP&#45;CR&#45;PD&#45;314&#45;11&#45;6</title>
<path fill="none" stroke="black" d="M279.355,-503.849C273.647,-466.832 260.131,-379.181 253.223,-334.386"/>
<polygon fill="black" stroke="black" points="256.641,-333.582 251.657,-324.232 249.722,-334.649 256.641,-333.582"/>
</g>
<!-- MIL&#45;6 -->
<g id="node11" class="node"><title>MIL&#45;6</title>
<ellipse fill="none" stroke="black" cx="354" cy="-450" rx="34.394" ry="18"/>
<a xlink:show="new" xlink:href="http://asso-ide.fr/lodetis-demo.php?id=MIL-6"><text text-anchor="middle" x="354" y="-446.3" font-family="Times New Roman,serif" font-size="14.00">MIL&#45;6</text></a>
</g>
<!-- MIL&#45;5&#45;&gt;MIL&#45;6 -->
<g id="edge11" class="edge"><title>MIL&#45;5&#45;&gt;MIL&#45;6</title>
<path fill="none" stroke="black" d="M297.623,-505.811C307.435,-496.271 320.259,-483.803 331.197,-473.17"/>
<polygon fill="black" stroke="black" points="333.677,-475.64 338.408,-466.159 328.798,-470.621 333.677,-475.64"/>
</g>
<!-- DOC&#45;CR&#45;PD&#45;314&#45;11&#45;6 -->
<g id="node19" class="node"><title>DOC&#45;CR&#45;PD&#45;314&#45;11&#45;6</title>
<ellipse fill="none" stroke="black" cx="124" cy="-234" rx="95.5831" ry="18"/>
<a xlink:show="new" xlink:href="http://asso-ide.fr/lodetis-demo.php?id=DOC-CR&#45;PD&#45;314&#45;11&#45;6"><text text-anchor="middle" x="124" y="-230.3" font-family="Times New Roman,serif" font-size="14.00">DOC&#45;CR&#45;PD&#45;314&#45;11&#45;6</text></a>
</g>
<!-- REP&#45;CR&#45;PD&#45;314&#45;11&#45;6&#45;&gt;DOC&#45;CR&#45;PD&#45;314&#45;11&#45;6 -->
<g id="edge25" class="edge"><title>REP&#45;CR&#45;PD&#45;314&#45;11&#45;6&#45;&gt;DOC&#45;CR&#45;PD&#45;314&#45;11&#45;6</title>
<path fill="none" stroke="black" d="M220.008,-288.765C202.778,-279.116 180.724,-266.765 162.099,-256.335"/>
<polygon fill="black" stroke="black" points="163.703,-253.222 153.267,-251.39 160.282,-259.33 163.703,-253.222"/>
</g>
<!-- REP&#45;CR&#45;PD&#45;314&#45;11&#45;6&#45;&gt;DOC&#45;NON -->
<g id="edge29" class="edge"><title>REP&#45;CR&#45;PD&#45;314&#45;11&#45;6&#45;&gt;DOC&#45;NON</title>
<path fill="none" stroke="black" d="M247.749,-287.966C244.249,-240.291 234.328,-105.185 230.029,-46.63"/>
<polygon fill="black" stroke="black" points="233.494,-46.0233 229.271,-36.3065 226.513,-46.5359 233.494,-46.0233"/>
</g>
<!-- MIL&#45;6&#45;&gt;REP&#45;NON -->
<g id="edge13" class="edge"><title>MIL&#45;6&#45;&gt;REP&#45;NON</title>
<path fill="none" stroke="black" d="M380.281,-438.075C422.563,-418.538 501,-373.354 501,-307 501,-307 501,-307 501,-233 501,-192.916 504.616,-146.594 507.264,-118.048"/>
<polygon fill="black" stroke="black" points="510.754,-118.315 508.222,-108.027 503.786,-117.649 510.754,-118.315"/>
</g>
<!-- MIL&#45;7 -->
<g id="node12" class="node"><title>MIL&#45;7</title>
<ellipse fill="none" stroke="black" cx="354" cy="-378" rx="34.394" ry="18"/>
<a xlink:show="new" xlink:href="http://asso-ide.fr/lodetis-demo.php?id=MIL-7"><text text-anchor="middle" x="354" y="-374.3" font-family="Times New Roman,serif" font-size="14.00">MIL&#45;7</text></a>
</g>
<!-- MIL&#45;6&#45;&gt;MIL&#45;7 -->
<g id="edge12" class="edge"><title>MIL&#45;6&#45;&gt;MIL&#45;7</title>
<path fill="none" stroke="black" d="M354,-431.697C354,-423.983 354,-414.712 354,-406.112"/>
<polygon fill="black" stroke="black" points="357.5,-406.104 354,-396.104 350.5,-406.104 357.5,-406.104"/>
</g>
<!-- MIL&#45;7&#45;&gt;REP&#45;CR&#45;PD&#45;314&#45;11&#45;6 -->
<g id="edge14" class="edge"><title>MIL&#45;7&#45;&gt;REP&#45;CR&#45;PD&#45;314&#45;11&#45;6</title>
<path fill="none" stroke="black" d="M333.506,-363.337C318.97,-353.647 299.142,-340.428 282.346,-329.23"/>
<polygon fill="black" stroke="black" points="284.144,-326.223 273.882,-323.588 280.262,-332.048 284.144,-326.223"/>
</g>
<!-- MIL&#45;8 -->
<g id="node13" class="node"><title>MIL&#45;8</title>
<ellipse fill="none" stroke="black" cx="396" cy="-306" rx="34.394" ry="18"/>
<a xlink:show="new" xlink:href="http://asso-ide.fr/lodetis-demo.php?id=MIL-8"><text text-anchor="middle" x="396" y="-302.3" font-family="Times New Roman,serif" font-size="14.00">MIL&#45;8</text></a>
</g>
<!-- MIL&#45;7&#45;&gt;MIL&#45;8 -->
<g id="edge15" class="edge"><title>MIL&#45;7&#45;&gt;MIL&#45;8</title>
<path fill="none" stroke="black" d="M363.953,-360.411C369.027,-351.955 375.303,-341.494 380.953,-332.078"/>
<polygon fill="black" stroke="black" points="383.974,-333.846 386.118,-323.47 377.972,-330.244 383.974,-333.846"/>
</g>
<!-- MIL&#45;8&#45;&gt;REP&#45;NON -->
<g id="edge17" class="edge"><title>MIL&#45;8&#45;&gt;REP&#45;NON</title>
<path fill="none" stroke="black" d="M410.349,-289.593C419.328,-279.435 430.722,-265.549 439,-252 440.888,-248.91 478.947,-162.033 498.547,-117.212"/>
<polygon fill="black" stroke="black" points="501.854,-118.383 502.653,-107.818 495.44,-115.579 501.854,-118.383"/>
</g>
<!-- MIL&#45;9 -->
<g id="node14" class="node"><title>MIL&#45;9</title>
<ellipse fill="none" stroke="black" cx="396" cy="-234" rx="34.394" ry="18"/>
<a xlink:show="new" xlink:href="http://asso-ide.fr/lodetis-demo.php?id=MIL-9"><text text-anchor="middle" x="396" y="-230.3" font-family="Times New Roman,serif" font-size="14.00">MIL&#45;9</text></a>
</g>
<!-- MIL&#45;8&#45;&gt;MIL&#45;9 -->
<g id="edge16" class="edge"><title>MIL&#45;8&#45;&gt;MIL&#45;9</title>
<path fill="none" stroke="black" d="M396,-287.697C396,-279.983 396,-270.712 396,-262.112"/>
<polygon fill="black" stroke="black" points="399.5,-262.104 396,-252.104 392.5,-262.104 399.5,-262.104"/>
</g>
<!-- MIL&#45;9&#45;&gt;REP&#45;NON -->
<g id="edge19" class="edge"><title>MIL&#45;9&#45;&gt;REP&#45;NON</title>
<path fill="none" stroke="black" d="M403.947,-216.227C413.252,-197.526 429.853,-166.904 449,-144 458.393,-132.764 470.269,-121.878 481.04,-112.926"/>
<polygon fill="black" stroke="black" points="483.431,-115.494 489.003,-106.483 479.028,-110.052 483.431,-115.494"/>
</g>
<!-- MIL&#45;10 -->
<g id="node15" class="node"><title>MIL&#45;10</title>
<ellipse fill="none" stroke="black" cx="359" cy="-162" rx="38.1938" ry="18"/>
<a xlink:show="new" xlink:href="http://asso-ide.fr/lodetis-demo.php?id=MIL-10"><text text-anchor="middle" x="359" y="-158.3" font-family="Times New Roman,serif" font-size="14.00">MIL&#45;10</text></a>
</g>
<!-- MIL&#45;9&#45;&gt;MIL&#45;10 -->
<g id="edge18" class="edge"><title>MIL&#45;9&#45;&gt;MIL&#45;10</title>
<path fill="none" stroke="black" d="M387.232,-216.411C382.917,-208.249 377.616,-198.22 372.777,-189.065"/>
<polygon fill="black" stroke="black" points="375.73,-187.162 367.963,-179.956 369.541,-190.433 375.73,-187.162"/>
</g>
<!-- MIL&#45;10&#45;&gt;REP&#45;NON -->
<g id="edge22" class="edge"><title>MIL&#45;10&#45;&gt;REP&#45;NON</title>
<path fill="none" stroke="black" d="M385.302,-148.807C409.112,-137.769 444.483,-121.372 471.478,-108.858"/>
<polygon fill="black" stroke="black" points="473.045,-111.99 480.645,-104.608 470.1,-105.639 473.045,-111.99"/>
</g>
<!-- REP&#45;CR&#45;PD&#45;314&#45;11&#45;7 -->
<g id="node16" class="node"><title>REP&#45;CR&#45;PD&#45;314&#45;11&#45;7</title>
<ellipse fill="none" stroke="black" cx="349" cy="-90" rx="92.8835" ry="18"/>
<a xlink:show="new" xlink:href="http://asso-ide.fr/lodetis-demo.php?id=REP-CR&#45;PD&#45;314&#45;11&#45;7"><text text-anchor="middle" x="349" y="-86.3" font-family="Times New Roman,serif" font-size="14.00">REP&#45;CR&#45;PD&#45;314&#45;11&#45;7</text></a>
</g>
<!-- MIL&#45;10&#45;&gt;REP&#45;CR&#45;PD&#45;314&#45;11&#45;7 -->
<g id="edge20" class="edge"><title>MIL&#45;10&#45;&gt;REP&#45;CR&#45;PD&#45;314&#45;11&#45;7</title>
<path fill="none" stroke="black" d="M356.528,-143.697C355.426,-135.983 354.102,-126.712 352.873,-118.112"/>
<polygon fill="black" stroke="black" points="356.323,-117.509 351.443,-108.104 349.393,-118.499 356.323,-117.509"/>
</g>
<!-- DOC&#45;CR&#45;PD&#45;314&#45;11&#45;7 -->
<g id="node20" class="node"><title>DOC&#45;CR&#45;PD&#45;314&#45;11&#45;7</title>
<ellipse fill="none" stroke="black" cx="394" cy="-18" rx="95.5831" ry="18"/>
<a xlink:show="new" xlink:href="http://asso-ide.fr/lodetis-demo.php?id=DOC-CR&#45;PD&#45;314&#45;11&#45;7"><text text-anchor="middle" x="394" y="-14.3" font-family="Times New Roman,serif" font-size="14.00">DOC&#45;CR&#45;PD&#45;314&#45;11&#45;7</text></a>
</g>
<!-- REP&#45;CR&#45;PD&#45;314&#45;11&#45;7&#45;&gt;DOC&#45;CR&#45;PD&#45;314&#45;11&#45;7 -->
<g id="edge26" class="edge"><title>REP&#45;CR&#45;PD&#45;314&#45;11&#45;7&#45;&gt;DOC&#45;CR&#45;PD&#45;314&#45;11&#45;7</title>
<path fill="none" stroke="black" d="M359.893,-72.055C365.122,-63.922 371.501,-53.998 377.323,-44.9426"/>
<polygon fill="black" stroke="black" points="380.431,-46.5798 382.894,-36.2753 374.543,-42.7944 380.431,-46.5798"/>
</g>
<!-- REP&#45;CR&#45;PD&#45;314&#45;11&#45;7&#45;&gt;DOC&#45;NON -->
<g id="edge30" class="edge"><title>REP&#45;CR&#45;PD&#45;314&#45;11&#45;7&#45;&gt;DOC&#45;NON</title>
<path fill="none" stroke="black" d="M320.936,-72.7646C303.537,-62.6992 281.057,-49.694 262.564,-38.9959"/>
<polygon fill="black" stroke="black" points="264.255,-35.9304 253.846,-33.9523 260.749,-41.9895 264.255,-35.9304"/>
</g>
</g>
</svg>
